<?xml version="1.0" encoding="UTF-8"?>
<svg width="195px" height="42px" viewBox="0 0 195 42" version="1.1" xmlns="http://www.w3.org/2000/svg" xmlns:xlink="http://www.w3.org/1999/xlink">
    <!-- Generator: Sketch 61 (89581) - https://sketch.com -->
    <title>logo</title>
    <desc>Created with Sketch.</desc>
    <g id="Page-1" stroke="none" stroke-width="1" fill="none" fill-rule="evenodd">
        <g id="首頁" transform="translate(-25.000000, -12.000000)">
            <g id="logo" transform="translate(24.000000, 11.000000)">
                <g id="icon" stroke-linecap="round" stroke-linejoin="round" stroke-width="3">
                    <g id="circle">
                        <path d="M40.2335689,16.728426 C38.4456805,20.9568423 34.006522,23.4519321 29.3814331,22.8280175 C24.7563442,22.2041029 21.0813418,18.6144301 20.3973825,14.0525668 C19.7134232,9.49070354 22.1885014,5.07713726 26.4480528,3.26299472" id="Path" stroke="#67C7E4" transform="translate(30.259040, 13.093026) rotate(-293.000000) translate(-30.259040, -13.093026) "></path>
                        <path d="M40.1861048,37.2059258 C38.3434103,41.4586533 33.8723931,44.0116266 29.2560858,43.4470216 C24.6397786,42.8824165 21.0120415,39.3389117 20.3875817,34.7844349 C19.7631218,30.229958 22.2953194,25.7831824 26.5778882,23.9136779" id="Path" stroke="#2E93D0" transform="translate(30.239815, 33.719238) rotate(-606.000000) translate(-30.239815, -33.719238) "></path>
                        <path d="M22.5828325,26.9986952 C20.8139826,31.2859805 16.4307924,33.8200101 11.8675191,33.1934805 C7.30424578,32.5669508 3.68172315,28.9337506 3.01176239,24.3116208 C2.34180163,19.6894911 4.78895891,15.213722 8.9941762,13.3699855" id="Path" stroke="#164199" transform="translate(12.742425, 23.329017) rotate(-702.000000) translate(-12.742425, -23.329017) "></path>
                    </g>
                    <g id="share-2" transform="translate(8.756757, 8.913127)" stroke="#81C03C">
                        <line x1="8.15837838" y1="17.0983494" x2="18.1264865" y2="23.0107239" id="Path"></line>
                        <line x1="18.1118919" y1="6.69970077" x2="8.15837838" y2="12.6120753" id="Path"></line>
                        <ellipse id="Oval" cx="21.8918919" cy="4.45656371" rx="4.37837838" ry="4.45656371"></ellipse>
                        <ellipse id="Oval" cx="4.37837838" cy="14.8552124" rx="4.37837838" ry="4.45656371"></ellipse>
                        <ellipse id="Oval" cx="21.8918919" cy="25.253861" rx="4.37837838" ry="4.45656371"></ellipse>
                    </g>
                </g>
                <path d="M59.4538378,22.1627722 C61.1247568,21.2667722 62.6624865,20.0801776 64.067027,18.6029884 C65.2657297,20.0922857 66.3736216,21.2728263 67.3907027,22.14461 L67.3907027,22.14461 L68.5167568,20.6008263 C67.1727568,19.6079614 66.0345946,18.4819073 65.1022703,17.2226641 C66.2525405,15.1642857 66.9184865,12.6881776 67.1001081,9.79433977 L67.1001081,9.79433977 L68.5167568,9.79433977 L68.5167568,8.1960695 L63.2497297,8.1960695 L63.5766486,7.17898842 L63.9580541,5.87131274 L62.2871351,5.5080695 C61.4758919,8.52298842 60.4224865,10.6237452 59.1269189,11.8103398 L59.1269189,11.8103398 L57.6376216,11.8103398 L57.6376216,7.94179923 L60.5435676,7.94179923 L60.5435676,6.41617761 L52.08,6.41617761 L52.08,7.94179923 L55.9667027,7.94179923 L55.9667027,18.3487181 L55.2947027,18.5485019 L54.5682162,18.7301236 L54.5682162,10.1939073 L52.9154595,10.1939073 L52.9154595,19.1478533 L52.3887568,19.2749884 L51.7894054,19.4384479 L52.5340541,21.2183398 C52.8004324,21.1214749 53.0304865,21.0427722 53.2242162,20.9822317 C56.0696216,20.122556 58.4004324,19.2870965 60.2166486,18.4758533 L60.2166486,18.4758533 L60.2166486,16.8412587 C59.9260541,17.0107722 59.5022703,17.1863398 58.9452973,17.3679614 C58.5457297,17.5011506 58.1098378,17.658556 57.6376216,17.8401776 L57.6376216,17.8401776 L57.6376216,13.3904479 L59.7625946,13.3904479 L60.0168649,13.6992046 L60.144,13.5720695 C60.3377297,13.3783398 60.476973,13.2209344 60.5617297,13.0998533 L60.5617297,13.0998533 L60.9976216,12.5368263 C61.603027,14.5346641 62.2871351,16.1026641 63.0499459,17.2408263 C61.7180541,18.6937992 60.144,19.8137992 58.3277838,20.6008263 L58.3277838,20.6008263 L59.4538378,22.1627722 Z M63.9762162,15.8423398 L63.5948108,15.079529 C63.2921081,14.4499073 63.056,13.8868803 62.8864865,13.3904479 L62.8864865,13.3904479 L62.051027,10.9022317 L62.3597838,10.2847181 L62.5777297,9.79433977 L65.4836757,9.79433977 C65.2172973,12.4096911 64.7148108,14.4256911 63.9762162,15.8423398 L63.9762162,15.8423398 Z M71.459027,21.8540154 C71.5437838,21.8540154 71.7708108,21.5119614 72.1401081,20.8278533 C72.5094054,20.1437452 72.7878919,19.3960695 72.9755676,18.5848263 C73.1632432,17.773583 73.2570811,16.9017992 73.2570811,15.9694749 C73.2570811,15.4003938 73.2782703,14.6799614 73.3206486,13.8081776 C73.363027,12.9363938 73.3842162,12.3188803 73.3842162,11.9556371 L73.3842162,11.9556371 L73.3842162,8.61379923 L86.6789189,8.61379923 L86.6789189,6.97920463 L80.0497297,6.97920463 L79.7046486,6.21639382 L79.3232432,5.47174517 L77.507027,5.70785328 L77.9065946,6.43433977 L78.179027,6.97920463 L71.6224865,6.97920463 L71.6224865,10.6116371 C71.5498378,12.3552046 71.5135135,14.0927181 71.5135135,15.8241776 C71.5135135,17.3619073 70.9928649,18.9722857 69.9515676,20.6553127 L69.9515676,20.6553127 L71.459027,21.8540154 Z M77.1437838,22.1627722 L77.1437838,12.282556 L77.6341622,11.1383398 L78.2153514,9.59455598 L76.6897297,9.0133668 C75.8179459,11.4713127 74.6918919,13.5236371 73.3115676,15.1703398 L73.3115676,15.1703398 L74.2196757,16.6959614 C74.704,16.2116371 75.1277838,15.642556 75.491027,14.9887181 L75.491027,14.9887181 L75.491027,22.1627722 L77.1437838,22.1627722 Z M82.9556757,21.8721776 C83.7669189,21.8721776 84.3148108,21.7299073 84.5993514,21.4453668 C84.8838919,21.1608263 85.0261622,20.679529 85.0261622,20.0014749 L85.0261622,20.0014749 L85.0261622,13.2814749 L86.6789189,13.2814749 L86.6789189,11.6832046 L85.0261622,11.6832046 L85.0261622,9.3947722 L83.3552432,9.3947722 L83.3552432,11.6832046 L78.1063784,11.6832046 L78.1063784,13.2814749 L83.3552432,13.2814749 L83.3552432,19.783529 C83.3552432,20.1588803 83.1615135,20.346556 82.7740541,20.346556 L82.7740541,20.346556 L80.1768649,20.2739073 L80.5764324,21.8721776 L82.9556757,21.8721776 Z M80.5764324,18.4940154 L82.0657297,17.549583 C81.5087568,16.5567181 80.9033514,15.6728263 80.2495135,14.8979073 C80.1647568,14.8010425 80.0557838,14.6739073 79.9225946,14.5165019 L79.9225946,14.5165019 L78.5785946,15.3337992 C78.6996757,15.5033127 78.8025946,15.642556 78.8873514,15.751529 C79.299027,16.2963938 79.7591351,17.0228803 80.2676757,17.9309884 C80.3403243,18.0762857 80.4432432,18.2639614 80.5764324,18.4940154 L80.5764324,18.4940154 Z M102.915892,19.4021236 L102.915892,12.1190965 L103.587892,12.282556 L104.332541,12.4460154 L104.768432,10.8840695 C103.085405,10.6540154 101.923027,10.381583 101.281297,10.0667722 C100.639568,9.75196139 99.8222703,9.18288031 98.8294054,8.35952896 L98.8294054,8.35952896 L99.011027,8.06893436 L102.134919,8.06893436 L101.535568,8.54115058 L100.736432,9.04969112 L101.717189,10.0122857 C101.923027,9.85488031 102.086486,9.73379923 102.207568,9.64904247 C102.970378,9.07996139 103.557622,8.55931274 103.969297,8.08709653 L103.969297,8.08709653 L103.969297,6.77942085 L96.9405405,6.77942085 L97.2856216,6.37985328 L97.6307027,5.92579923 L96.1414054,5.43542085 C95.7297297,5.96817761 95.308973,6.4373668 94.8791351,6.84298842 C94.4492973,7.24861004 93.6471351,7.82071815 92.4726486,8.55931274 L92.4726486,8.55931274 L93.5442162,9.72169112 L94.6521081,8.94071815 C94.8216216,8.81963707 95.1001081,8.58958301 95.4875676,8.25055598 C95.536,8.20212355 95.6086486,8.14158301 95.7055135,8.06893436 L95.7055135,8.06893436 L97.3582703,8.06893436 C96.5349189,9.34028571 95.0335135,10.2907722 92.8540541,10.9203938 L92.8540541,10.9203938 L93.7258378,11.9011506 L90.275027,11.9011506 L90.275027,19.4021236 L102.915892,19.4021236 Z M91.619027,8.61379923 L92.6361081,7.30612355 C91.9217297,6.73704247 90.9712432,6.24061004 89.7846486,5.81682625 L89.7846486,5.81682625 L88.7494054,7.01552896 L90.1115676,7.72385328 C90.8743784,8.12342085 91.3768649,8.4200695 91.619027,8.61379923 L91.619027,8.61379923 Z M88.7312432,11.9737992 C90.6201081,11.3805019 91.8975135,10.8598533 92.5634595,10.4118533 L92.5634595,10.4118533 L92.1094054,9.0133668 C91.3587027,9.43715058 90.2568649,9.83671815 88.8038919,10.2120695 C88.6464865,10.2483938 88.4527568,10.2968263 88.2227027,10.3573668 L88.2227027,10.3573668 L88.7312432,11.9737992 Z M102.134919,11.9011506 L94.4523243,11.9011506 C95.6994595,11.501583 96.7528649,10.8840695 97.6125405,10.04861 L97.6125405,10.04861 L98.1392432,9.52190734 C99.3621622,10.7448263 100.694054,11.5379073 102.134919,11.9011506 L102.134919,11.9011506 Z M101.281297,13.9897992 L91.9277838,13.9897992 L91.9277838,13.1180154 L101.281297,13.1180154 L101.281297,13.9897992 Z M101.281297,16.0057992 L91.9277838,16.0057992 L91.9277838,15.079529 L101.281297,15.079529 L101.281297,16.0057992 Z M101.281297,18.1489344 L91.9277838,18.1489344 L91.9277838,17.1136911 L101.281297,17.1136911 L101.281297,18.1489344 Z M104.150919,22.1082857 L104.841081,20.6008263 C103.484973,20.2133668 101.892757,19.8743398 100.064432,19.5837452 L100.064432,19.5837452 L99.0473514,19.4384479 L98.2118919,20.7097992 C98.4903784,20.7703398 98.7204324,20.8187722 98.9020541,20.8550965 C100.064432,21.0730425 100.887784,21.242556 101.372108,21.3636371 L101.372108,21.3636371 L104.150919,22.1082857 Z M89.1308108,22.1264479 C89.372973,22.0780154 89.5727568,22.0416911 89.7301622,22.0174749 C91.4979459,21.6784479 93.3323243,21.2304479 95.2332973,20.6734749 L95.2332973,20.6734749 L94.1435676,19.4929344 C92.848,19.9167181 90.9167568,20.3405019 88.3498378,20.7642857 L88.3498378,20.7642857 L89.1308108,22.1264479 Z M111.379459,22.1627722 L111.379459,15.1340154 L112.196757,16.0421236 C112.414703,16.2963938 112.668973,16.6172587 112.959568,17.0047181 C113.044324,17.1257992 113.159351,17.2832046 113.304649,17.4769344 L113.304649,17.4769344 L114.194595,16.1692587 C114.000865,15.9634208 113.849514,15.7999614 113.740541,15.6788803 C113.147243,15.0492587 112.511568,14.4377992 111.833514,13.8445019 C111.712432,13.7476371 111.561081,13.6205019 111.379459,13.4630965 L111.379459,13.4630965 L111.379459,13.0998533 L114.194595,13.0998533 L114.194595,11.5923938 L111.379459,11.5923938 L111.379459,5.45358301 L109.781189,5.45358301 L109.781189,11.5923938 L106.493838,11.5923938 L106.493838,13.0998533 L109.635892,13.0998533 C108.534054,15.1461236 107.414054,16.7141236 106.275892,17.8038533 L106.275892,17.8038533 L107.075027,19.5474208 C108.019459,18.4576911 108.806486,17.3376911 109.436108,16.1874208 C109.520865,16.0179073 109.635892,15.7999614 109.781189,15.533583 L109.781189,15.533583 L109.781189,22.1627722 L111.379459,22.1627722 Z M121.368649,22.1627722 L121.368649,17.6040695 L123.003243,17.3497992 L123.003243,15.7333668 L121.368649,15.9876371 L121.368649,5.45358301 L119.752216,5.45358301 L119.752216,16.205583 L114.103784,17.0592046 L114.103784,18.6756371 L119.752216,17.8220154 L119.752216,22.1627722 L121.368649,22.1627722 Z M113.431784,10.7932587 C113.782919,9.72774517 114.073514,8.43823166 114.303568,6.92471815 L114.303568,6.92471815 L112.923243,6.59779923 C112.862703,6.86417761 112.81427,7.08212355 112.777946,7.25163707 C112.596324,8.22028571 112.384432,9.07390734 112.14227,9.81250193 C112.093838,9.95779923 112.033297,10.1454749 111.960649,10.375529 L111.960649,10.375529 L113.431784,10.7932587 Z M107.529081,10.7387722 L109.072865,10.3210425 C109.012324,10.0667722 108.963892,9.86093436 108.927568,9.70352896 C108.649081,8.37163707 108.370595,7.36061004 108.092108,6.67044788 L108.092108,6.67044788 L106.693622,7.03369112 C106.996324,7.78439382 107.274811,9.01942085 107.529081,10.7387722 L107.529081,10.7387722 Z M117.990486,10.7750965 L119.098378,9.43109653 C118.977297,9.34633977 118.880432,9.27369112 118.807784,9.21315058 C117.851243,8.46244788 116.973405,7.88731274 116.17427,7.48774517 L116.17427,7.48774517 L115.139027,8.68644788 C115.320649,8.79542085 115.465946,8.88017761 115.574919,8.94071815 C116.228757,9.32817761 117.033946,9.93963707 117.990486,10.7750965 L117.990486,10.7750965 Z M117.663568,15.079529 L118.771459,13.735529 C118.650378,13.6507722 118.553514,13.5781236 118.480865,13.517583 C117.718054,12.9242857 116.979459,12.4217992 116.265081,12.0101236 C116.156108,11.949583 116.016865,11.8708803 115.847351,11.7740154 L115.847351,11.7740154 L114.83027,12.954556 C114.999784,13.063529 115.139027,13.1482857 115.248,13.2088263 C116.047135,13.6931506 116.852324,14.3167181 117.663568,15.079529 L117.663568,15.079529 Z M128.342919,22.1627722 L128.342919,12.9727181 C128.391351,13.0453668 128.43373,13.1059073 128.470054,13.1543398 C128.893838,13.7113127 129.287351,14.3833127 129.650595,15.1703398 L129.650595,15.1703398 L130.522378,13.7900154 C130.06227,13.1361776 129.711135,12.6639614 129.468973,12.3733668 L129.468973,12.3733668 L128.342919,11.0656911 L128.342919,10.4481776 L129.814054,10.4481776 L129.814054,8.95888031 L128.342919,8.95888031 L128.342919,5.45358301 L126.762811,5.45358301 L126.762811,8.95888031 L124.619676,8.95888031 L124.619676,10.4481776 L126.708324,10.4481776 C126.006054,12.7245019 125.249297,14.4983398 124.438054,15.7696911 L124.438054,15.7696911 L125.182703,17.6222317 C125.642811,16.8957452 126.096865,15.8302317 126.544865,14.4256911 C126.593297,14.2561776 126.665946,14.0321776 126.762811,13.7536911 L126.762811,13.7536911 L126.762811,22.1627722 L128.342919,22.1627722 Z M140.566054,13.063529 L140.566054,8.55931274 L137.587459,8.55931274 L137.587459,7.14266409 L141.03827,7.14266409 L141.03827,5.79866409 L129.832216,5.79866409 L129.832216,7.14266409 L133.264865,7.14266409 L133.264865,8.55931274 L130.322595,8.55931274 L130.322595,13.063529 L140.566054,13.063529 Z M136.152649,8.55931274 L134.699676,8.55931274 L134.699676,7.14266409 L136.152649,7.14266409 L136.152649,8.55931274 Z M133.264865,11.7921776 L131.848216,11.7921776 L131.848216,9.83066409 L133.264865,9.83066409 L133.264865,11.7921776 Z M136.152649,11.7921776 L134.699676,11.7921776 L134.699676,9.83066409 L136.152649,9.83066409 L136.152649,11.7921776 Z M139.040432,11.7921776 L137.587459,11.7921776 L137.587459,9.83066409 L139.040432,9.83066409 L139.040432,11.7921776 Z M140.239135,15.1521776 L140.239135,13.8445019 L130.613189,13.8445019 L130.613189,15.1521776 L140.239135,15.1521776 Z M134.663351,21.9993127 C135.740973,21.9993127 136.279784,21.4968263 136.279784,20.4918533 L136.279784,20.4918533 L136.279784,17.3679614 L141.165405,17.3679614 L141.165405,16.0057992 L129.814054,16.0057992 L129.814054,17.3679614 L134.699676,17.3679614 L134.699676,20.0196371 C134.699676,20.3586641 134.518054,20.5281776 134.154811,20.5281776 L134.154811,20.5281776 L132.738162,20.455529 L133.13773,21.9993127 L134.663351,21.9993127 Z M130.159135,21.3817992 C131.188324,20.6916371 132.199351,19.6987722 133.192216,18.4032046 L133.192216,18.4032046 L131.957189,17.658556 C131.085405,18.7482857 130.092541,19.6261236 128.978595,20.2920695 L128.978595,20.2920695 L130.159135,21.3817992 Z M139.930378,21.4544479 L141.183568,20.3647181 C140.662919,19.8077452 140.196757,19.341583 139.785081,18.9662317 L139.785081,18.9662317 L138.368432,17.7312046 L137.206054,18.5303398 C138.12627,19.3294749 139.034378,20.3041776 139.930378,21.4544479 L139.930378,21.4544479 Z M151.735784,22.1627722 L151.735784,19.0207181 L159.327568,19.0207181 L159.327568,17.4769344 L151.735784,17.4769344 L151.735784,16.1874208 L159.127784,16.1874208 L159.127784,14.7344479 L154.877838,14.7344479 L154.877838,13.5720695 L158.147027,13.5720695 L158.147027,12.2643938 L154.877838,12.2643938 L154.877838,11.1383398 L158.147027,11.1383398 L158.147027,9.83066409 L154.877838,9.83066409 L154.877838,8.74093436 L158.837189,8.74093436 L158.837189,7.34244788 L154.932324,7.34244788 L154.550919,6.45250193 L154.060541,5.48990734 L152.444108,5.79866409 L152.88,6.68861004 L153.152432,7.34244788 L150.845838,7.34244788 L151.227243,6.57963707 C151.348324,6.34958301 151.439135,6.1134749 151.499676,5.87131274 L151.499676,5.87131274 L149.901405,5.45358301 C149.816649,5.64731274 149.744,5.8107722 149.683459,5.94396139 C149.029622,7.49379923 148.085189,8.93466409 146.850162,10.266556 L146.850162,10.266556 L146.486919,10.6297992 L147.413189,12.2462317 L147.576649,12.0827722 C147.69773,11.9616911 147.812757,11.8285019 147.92173,11.6832046 L147.92173,11.6832046 L148.43027,10.9567181 L148.43027,16.1874208 L150.010378,16.1874208 L150.010378,17.4769344 L142.600216,17.4769344 L142.600216,19.0207181 L150.010378,19.0207181 L150.010378,22.1627722 L151.735784,22.1627722 Z M146.813838,8.68644788 L147.703784,7.25163707 C147.510054,7.14266409 147.352649,7.05185328 147.231568,6.97920463 C146.141838,6.36169112 145.264,5.9560695 144.598054,5.76233977 L144.598054,5.76233977 L143.708108,7.03369112 L145.251892,7.81466409 C145.445622,7.91152896 145.808865,8.11131274 146.341622,8.41401544 C146.462703,8.48666409 146.620108,8.5774749 146.813838,8.68644788 L146.813838,8.68644788 Z M153.261405,9.83066409 L150.083027,9.83066409 L150.083027,8.74093436 L153.261405,8.74093436 L153.261405,9.83066409 Z M145.615135,12.3370425 L146.541405,10.8659073 C145.839135,10.3936911 144.955243,9.94569112 143.88973,9.52190734 C143.780757,9.48558301 143.641514,9.43109653 143.472,9.35844788 L143.472,9.35844788 L142.600216,10.6661236 C143.472,11.0777992 144.325622,11.5439614 145.161081,12.06461 C145.270054,12.1372587 145.421405,12.2280695 145.615135,12.3370425 L145.615135,12.3370425 Z M153.261405,12.2643938 L150.083027,12.2643938 L150.083027,11.1383398 L153.261405,11.1383398 L153.261405,12.2643938 Z M143.998703,17.0047181 C145.427459,15.9997452 146.614054,14.9039614 147.558486,13.7173668 L147.558486,13.7173668 L146.468757,12.4823398 C145.354811,13.7173668 144.131892,14.7223398 142.8,15.4972587 L142.8,15.4972587 L143.998703,17.0047181 Z M153.261405,14.7344479 L150.083027,14.7344479 L150.083027,13.5720695 L153.261405,13.5720695 L153.261405,14.7344479 Z M170.115892,22.1627722 L170.115892,16.2600695 L177.48973,16.2600695 L177.48973,14.6073127 L170.134054,14.6073127 L170.134054,7.83282625 L177.108324,7.83282625 L177.108324,6.19823166 L161.289081,6.19823166 L161.289081,7.83282625 L168.299676,7.83282625 L168.299676,14.6073127 L160.762378,14.6073127 L160.762378,16.2782317 L168.317838,16.2782317 L168.317838,22.1627722 L170.115892,22.1627722 Z M173.603027,13.626556 C174.704865,12.3794208 175.612973,11.0717452 176.327351,9.70352896 L176.327351,9.70352896 L174.856216,8.79542085 C174.723027,9.0133668 174.614054,9.19498842 174.529297,9.34028571 C173.875459,10.4421236 173.064216,11.5257992 172.095568,12.5913127 L172.095568,12.5913127 L173.603027,13.626556 Z M164.449297,13.5539073 L166.06573,12.6276371 L164.957838,10.5934749 C164.667243,10.0849344 164.310054,9.50979923 163.88627,8.8680695 L163.88627,8.8680695 L162.342486,9.6853668 C162.887351,10.3876371 163.589622,11.6771506 164.449297,13.5539073 L164.449297,13.5539073 Z M194.761946,9.10417761 L194.761946,7.99628571 L187.987459,7.99628571 L187.987459,7.32428571 L195.488432,7.32428571 L195.488432,6.12558301 L187.987459,6.12558301 L187.987459,5.45358301 L186.334703,5.45358301 L186.334703,6.12558301 L179.178811,6.12558301 L179.178811,7.32428571 L186.334703,7.32428571 L186.334703,7.99628571 L179.814486,7.99628571 L179.814486,9.10417761 L194.761946,9.10417761 Z M193.781189,12.5005019 L193.781189,9.73985328 L180.777081,9.73985328 L180.777081,12.5005019 L193.781189,12.5005019 Z M192.219243,11.501583 L182.339027,11.501583 L182.339027,10.72061 L192.219243,10.72061 L192.219243,11.501583 Z M180.758919,15.642556 L180.758919,14.2622317 L193.908324,14.2622317 L193.908324,15.642556 L195.397622,15.642556 L195.397622,13.1361776 L179.269622,13.1361776 L179.269622,15.642556 L180.758919,15.642556 Z M195.506595,21.8176911 L195.506595,20.6189884 L187.987459,20.6189884 L187.987459,19.783529 L194.562162,19.783529 L194.562162,18.6574749 L187.987459,18.6574749 L187.987459,17.8946641 L190.348541,17.8220154 L192.201081,17.767529 L192.473514,17.9673127 L192.891243,18.3850425 L193.962811,17.5314208 L192.909405,16.6596371 L192.092108,16.0239614 L193.254486,16.0239614 L193.254486,14.9160695 L181.449081,14.9160695 L181.449081,16.0239614 L183.882811,16.0239614 L182.811243,16.8049344 L181.903135,16.8049344 L180.341189,16.7504479 L180.668108,18.0036371 L183.319784,17.9673127 L186.334703,17.9128263 L186.334703,18.6574749 L179.959784,18.6574749 L179.959784,19.783529 L186.334703,19.783529 L186.334703,20.6189884 L179.124324,20.6189884 L179.124324,21.8176911 L195.506595,21.8176911 Z M188.459676,16.8594208 C187.575784,16.8594208 186.837189,16.8563938 186.243892,16.8503398 C185.650595,16.8442857 185.117838,16.8412587 184.645622,16.8412587 L184.645622,16.8412587 L185.717189,16.0239614 L191.892324,16.0239614 L190.620973,16.3872046 L190.893405,16.5506641 L191.238486,16.8049344 L188.459676,16.8594208 Z" id="政府資料標準平臺" fill="#222222" fill-rule="nonzero"></path>
                <path d="M54.1167568,39.4307143 C55.7772973,39.4307143 56.6854054,38.4836873 56.6854054,37.3420656 C56.6854054,36.0058494 55.5567568,35.5907143 54.5318919,35.2015251 C53.7405405,34.9031467 52.9751351,34.6566602 52.9751351,33.9820656 C52.9751351,33.4372008 53.3772973,32.9701737 54.2594595,32.9701737 C54.8951351,32.9701737 55.3881081,33.2296332 55.8810811,33.5928764 L56.4518919,32.827471 C55.8940541,32.3993629 55.1286486,32.0361197 54.2594595,32.0361197 C52.7286486,32.0361197 51.8335135,32.9182819 51.8335135,34.0339575 C51.8335135,35.227471 52.9491892,35.707471 53.9351351,36.0707143 C54.7135135,36.3690927 55.5437838,36.693417 55.5437838,37.4069305 C55.5437838,38.0166602 55.0897297,38.5096332 54.1556757,38.5096332 C53.3124324,38.5096332 52.6767568,38.1723359 52.067027,37.6793629 L51.4832432,38.4577413 C52.1578378,39.0155792 53.1178378,39.4307143 54.1167568,39.4307143 Z M61.1221622,39.4307143 C61.9654054,39.4307143 62.7697297,39.10639 63.3924324,38.5355792 L62.8864865,37.7442278 C62.4454054,38.14639 61.8745946,38.4447683 61.2259459,38.4447683 C59.9286486,38.4447683 59.0464865,37.3680116 59.0464865,35.74639 C59.0464865,34.1247683 59.9805405,33.0220656 61.2518919,33.0220656 C61.8227027,33.0220656 62.2508108,33.2815251 62.6659459,33.6577413 L63.2756757,32.86639 C62.7697297,32.4253089 62.1340541,32.0361197 61.212973,32.0361197 C59.4097297,32.0361197 57.8140541,33.3982819 57.8140541,35.74639 C57.8140541,38.0815251 59.2540541,39.4307143 61.1221622,39.4307143 Z M66.1297297,39.2620656 L66.1297297,34.1507143 C66.8432432,33.4372008 67.3362162,33.0739575 68.0627027,33.0739575 C68.9967568,33.0739575 69.3989189,33.6317954 69.3989189,34.9550386 L69.3989189,39.2620656 L70.5794595,39.2620656 L70.5794595,34.7993629 C70.5794595,32.9961197 69.9048649,32.0361197 68.4259459,32.0361197 C67.4659459,32.0361197 66.7394595,32.5680116 66.0908108,33.2166602 L66.1297297,31.7636873 L66.1297297,28.9355792 L64.9491892,28.9355792 L64.9491892,39.2620656 L66.1297297,39.2620656 Z M75.6648649,39.4307143 C76.6248649,39.4307143 77.3772973,39.10639 78,38.7042278 L77.5718919,37.9258494 C77.052973,38.2761197 76.4951351,38.4836873 75.8075676,38.4836873 C74.4713514,38.4836873 73.5502703,37.5236873 73.4724324,36.0188224 L78.2205405,36.0188224 C78.2464865,35.8501737 78.2724324,35.6036873 78.2724324,35.3442278 C78.2724324,33.333417 77.2605405,32.0361197 75.4702703,32.0361197 C73.8356757,32.0361197 72.2918919,33.4631467 72.2918919,35.74639 C72.2918919,38.0685521 73.7967568,39.4307143 75.6648649,39.4307143 Z M77.2345946,35.1755792 L73.4594595,35.1755792 C73.6021622,33.787471 74.4843243,32.9831467 75.4832432,32.9831467 C76.5859459,32.9831467 77.2345946,33.7485521 77.2345946,35.1755792 Z M81.1913514,39.2620656 L81.1913514,34.1507143 C81.84,33.4242278 82.4367568,33.0739575 82.9686486,33.0739575 C83.8637838,33.0739575 84.2789189,33.6317954 84.2789189,34.9550386 L84.2789189,39.2620656 L85.4594595,39.2620656 L85.4594595,34.1507143 C86.1210811,33.4242278 86.6918919,33.0739575 87.2367568,33.0739575 C88.1318919,33.0739575 88.547027,33.6317954 88.547027,34.9550386 L88.547027,39.2620656 L89.7275676,39.2620656 L89.7275676,34.7993629 C89.7275676,32.9961197 89.04,32.0361197 87.587027,32.0361197 C86.7308108,32.0361197 85.9913514,32.5939575 85.2648649,33.3853089 C84.9794595,32.5550386 84.3956757,32.0361197 83.3189189,32.0361197 C82.4756757,32.0361197 81.7362162,32.5680116 81.1264865,33.2426062 L81.0875676,33.2426062 L80.9837838,32.2177413 L80.0108108,32.2177413 L80.0108108,39.2620656 L81.1913514,39.2620656 Z M93.6454054,39.4307143 C94.5145946,39.4307143 95.3059459,38.9766602 95.9805405,38.4188224 L96.0194595,38.4188224 L96.1232432,39.2620656 L97.0962162,39.2620656 L97.0962162,34.9290927 C97.0962162,33.1907143 96.3697297,32.0361197 94.6572973,32.0361197 C93.5286486,32.0361197 92.5297297,32.5420656 91.8810811,32.9572008 L92.3481081,33.7744981 C92.9059459,33.3982819 93.6454054,33.0220656 94.4627027,33.0220656 C95.6172973,33.0220656 95.9156757,33.8912548 95.9156757,34.7993629 C92.9189189,35.1366602 91.5827027,35.9020656 91.5827027,37.4328764 C91.5827027,38.7042278 92.4648649,39.4307143 93.6454054,39.4307143 Z M93.9827027,38.4836873 C93.2821622,38.4836873 92.7372973,38.1593629 92.7372973,37.3550386 C92.7372973,36.4469305 93.5416216,35.8631467 95.9156757,35.5777413 L95.9156757,37.5496332 C95.2281081,38.1593629 94.6702703,38.4836873 93.9827027,38.4836873 Z M99.9502703,39.4307143 C100.417297,39.4307143 100.806486,39.067471 100.806486,38.5355792 C100.806486,38.0036873 100.417297,37.6144981 99.9502703,37.6144981 C99.4832432,37.6144981 99.0940541,38.0036873 99.0940541,38.5355792 C99.0940541,39.067471 99.4832432,39.4307143 99.9502703,39.4307143 Z M105.321081,42.5053089 C107.500541,42.5053089 108.875676,41.3766602 108.875676,40.06639 C108.875676,38.9117954 108.058378,38.3928764 106.423784,38.3928764 L105.048649,38.3928764 C104.101622,38.3928764 103.816216,38.0815251 103.816216,37.627471 C103.816216,37.2382819 104.010811,37.0047683 104.27027,36.7842278 C104.581622,36.9399035 104.970811,37.0307143 105.321081,37.0307143 C106.748108,37.0307143 107.88973,36.0836873 107.88973,34.5788224 C107.88973,33.9690927 107.656216,33.4501737 107.318919,33.1258494 L108.758919,33.1258494 L108.758919,32.2177413 L106.307027,32.2177413 C106.060541,32.1269305 105.71027,32.0361197 105.321081,32.0361197 C103.894054,32.0361197 102.674595,33.0090927 102.674595,34.5528764 C102.674595,35.3961197 103.128649,36.0707143 103.595676,36.4469305 L103.595676,36.4988224 C103.232432,36.7582819 102.804324,37.2253089 102.804324,37.8090927 C102.804324,38.3669305 103.076757,38.7431467 103.452973,38.9636873 L103.452973,39.0155792 C102.791351,39.4436873 102.402162,40.0144981 102.402162,40.6112548 C102.402162,41.8307143 103.595676,42.5053089 105.321081,42.5053089 Z M105.321081,36.22639 C104.503784,36.22639 103.816216,35.5777413 103.816216,34.5528764 C103.816216,33.5150386 104.490811,32.9053089 105.321081,32.9053089 C106.151351,32.9053089 106.812973,33.5280116 106.812973,34.5528764 C106.812973,35.5777413 106.125405,36.22639 105.321081,36.22639 Z M105.48973,41.7009846 C104.205405,41.7009846 103.44,41.2080116 103.44,40.4555792 C103.44,40.040444 103.660541,39.6253089 104.166486,39.2620656 C104.477838,39.3399035 104.815135,39.3788224 105.074595,39.3788224 L106.294054,39.3788224 C107.228108,39.3788224 107.734054,39.5993629 107.734054,40.2480116 C107.734054,40.987471 106.838919,41.7009846 105.48973,41.7009846 Z M112.988108,39.4307143 C114.713514,39.4307143 116.257297,38.0815251 116.257297,35.74639 C116.257297,33.3982819 114.713514,32.0361197 112.988108,32.0361197 C111.262703,32.0361197 109.718919,33.3982819 109.718919,35.74639 C109.718919,38.0815251 111.262703,39.4307143 112.988108,39.4307143 Z M112.988108,38.4447683 C111.768649,38.4447683 110.951351,37.3680116 110.951351,35.74639 C110.951351,34.1247683 111.768649,33.0220656 112.988108,33.0220656 C114.207568,33.0220656 115.037838,34.1247683 115.037838,35.74639 C115.037838,37.3680116 114.207568,38.4447683 112.988108,38.4447683 Z M121.005405,39.2620656 L123.509189,32.2177413 L122.341622,32.2177413 L121.005405,36.22639 C120.797838,36.9139575 120.564324,37.640444 120.356757,38.3020656 L120.304865,38.3020656 C120.084324,37.640444 119.863784,36.9139575 119.643243,36.22639 L118.32,32.2177413 L117.087568,32.2177413 L119.63027,39.2620656 L121.005405,39.2620656 Z M125.481081,39.4307143 C125.948108,39.4307143 126.337297,39.067471 126.337297,38.5355792 C126.337297,38.0036873 125.948108,37.6144981 125.481081,37.6144981 C125.014054,37.6144981 124.624865,38.0036873 124.624865,38.5355792 C124.624865,39.067471 125.014054,39.4307143 125.481081,39.4307143 Z M130.696216,39.4307143 C131.124324,39.4307143 131.591351,39.3009846 131.993514,39.1712548 L131.76,38.2890927 C131.526486,38.3799035 131.202162,38.4707143 130.955676,38.4707143 C130.138378,38.4707143 129.865946,37.9777413 129.865946,37.1085521 L129.865946,33.1777413 L131.772973,33.1777413 L131.772973,32.2177413 L129.865946,32.2177413 L129.865946,30.2458494 L128.88,30.2458494 L128.737297,32.2177413 L127.634595,32.2826062 L127.634595,33.1777413 L128.685405,33.1777413 L128.685405,37.0826062 C128.685405,38.4966602 129.191351,39.4307143 130.696216,39.4307143 Z M135.872432,39.2620656 L136.858378,35.4869305 C137.04,34.8123359 137.182703,34.1507143 137.338378,33.4372008 L137.403243,33.4372008 C137.571892,34.1507143 137.701622,34.7993629 137.883243,35.4609846 L138.908108,39.2620656 L140.335135,39.2620656 L142.229189,32.2177413 L141.113514,32.2177413 L140.075676,36.2912548 C139.92,36.9658494 139.79027,37.6015251 139.634595,38.2631467 L139.582703,38.2631467 C139.414054,37.6015251 139.258378,36.9658494 139.08973,36.2912548 L137.987027,32.2177413 L136.832432,32.2177413 L135.742703,36.2912548 C135.561081,36.9528764 135.418378,37.6015251 135.262703,38.2631467 L135.197838,38.2631467 C135.068108,37.6015251 134.925405,36.9658494 134.782703,36.2912548 L133.731892,32.2177413 L132.525405,32.2177413 L134.484324,39.2620656 L135.872432,39.2620656 Z" id="schema.gov.tw" fill="#AAAAAA" fill-rule="nonzero"></path>
            </g>
        </g>
    </g>
</svg>